<svg width="22" height="16" viewBox="0 0 22 16" fill="none" xmlns="http://www.w3.org/2000/svg">
  <path
    d="M13 4.7667C13 4.6674 13.0333 4.57223 13.1 4.4812C13.1667 4.39017 13.2417 4.3281 13.325 4.295C13.825 4.11294 14.3375 3.97225 14.8625 3.87295C15.3875 3.77364 15.9333 3.72399 16.5 3.72399C16.8667 3.72399 17.225 3.74467 17.575 3.78605C17.925 3.82743 18.2667 3.8895 18.6 3.97225C18.7 4.00535 18.7917 4.06742 18.875 4.15845C18.9583 4.24948 19 4.35293 19 4.46878C19 4.65084 18.9375 4.79153 18.8125 4.89083C18.6875 4.99014 18.5333 5.01497 18.35 4.96531C18.0667 4.88256 17.7708 4.82049 17.4625 4.77912C17.1542 4.73774 16.8333 4.71705 16.5 4.71705C16.0167 4.71705 15.55 4.76256 15.1 4.85359C14.65 4.94463 14.2083 5.08117 13.775 5.26323C13.5417 5.34599 13.3542 5.34185 13.2125 5.25082C13.0708 5.15979 13 4.99842 13 4.7667ZM13 10.2285C13 10.1292 13.0333 10.0299 13.1 9.93063C13.1667 9.83132 13.2417 9.76512 13.325 9.73202C13.825 9.54995 14.3375 9.41341 14.8625 9.32238C15.3875 9.23135 15.9333 9.18583 16.5 9.18583C16.8667 9.18583 17.225 9.20652 17.575 9.2479C17.925 9.28928 18.2667 9.35134 18.6 9.4341C18.7 9.4672 18.7917 9.52927 18.875 9.6203C18.9583 9.71133 19 9.81477 19 9.93063C19 10.1127 18.9375 10.2534 18.8125 10.3527C18.6875 10.452 18.5333 10.4768 18.35 10.4272C18.0667 10.3444 17.7708 10.2823 17.4625 10.241C17.1542 10.1996 16.8333 10.1789 16.5 10.1789C16.0167 10.1789 15.55 10.2203 15.1 10.303C14.65 10.3858 14.2083 10.5182 13.775 10.7003C13.5417 10.783 13.3542 10.783 13.2125 10.7003C13.0708 10.6175 13 10.4603 13 10.2285ZM13 7.49762C13 7.39832 13.0333 7.30315 13.1 7.21212C13.1667 7.12109 13.2417 7.05902 13.325 7.02592C13.825 6.84386 14.3375 6.70317 14.8625 6.60387C15.3875 6.50456 15.9333 6.45491 16.5 6.45491C16.8667 6.45491 17.225 6.4756 17.575 6.51697C17.925 6.55835 18.2667 6.62042 18.6 6.70317C18.7 6.73628 18.7917 6.79834 18.875 6.88937C18.9583 6.9804 19 7.08385 19 7.19971C19 7.38177 18.9375 7.52245 18.8125 7.62176C18.6875 7.72106 18.5333 7.74589 18.35 7.69624C18.0667 7.61348 17.7708 7.55142 17.4625 7.51004C17.1542 7.46866 16.8333 7.44797 16.5 7.44797C16.0167 7.44797 15.55 7.49349 15.1 7.58452C14.65 7.67555 14.2083 7.81209 13.775 7.99416C13.5417 8.07691 13.3542 8.07277 13.2125 7.98174C13.0708 7.89071 13 7.72934 13 7.49762ZM5.2 12.4133C6.1 12.4133 6.97083 12.5167 7.8125 12.7236C8.65417 12.9305 9.48333 13.2408 10.3 13.6546V3.05367C9.55 2.55714 8.7375 2.17232 7.8625 1.89923C6.9875 1.62614 6.1 1.48959 5.2 1.48959C4.56667 1.48959 3.94583 1.56821 3.3375 1.72545C2.72917 1.88268 2.11667 2.07716 1.5 2.30887V13.0836C2.01667 12.8519 2.60417 12.6822 3.2625 12.5747C3.92083 12.4671 4.56667 12.4133 5.2 12.4133ZM11.8 13.6546C12.6333 13.2408 13.45 12.9305 14.25 12.7236C15.05 12.5167 15.9 12.4133 16.8 12.4133C17.4333 12.4133 18.0875 12.4629 18.7625 12.5622C19.4375 12.6616 20.0167 12.794 20.5 12.9595V2.30887C19.9333 2.0275 19.3333 1.82062 18.7 1.68821C18.0667 1.5558 17.4333 1.48959 16.8 1.48959C15.9 1.48959 15.0292 1.62614 14.1875 1.89923C13.3458 2.17232 12.55 2.55714 11.8 3.05367V13.6546ZM11.05 15.6159C10.9167 15.6159 10.7958 15.6035 10.6875 15.5787C10.5792 15.5538 10.4833 15.5083 10.4 15.4421C9.61667 14.9621 8.78333 14.5897 7.9 14.3249C7.01667 14.0601 6.11667 13.9277 5.2 13.9277C4.58333 13.9277 3.98333 14.0022 3.4 14.1511C2.81667 14.3001 2.23333 14.4822 1.65 14.6973C1.26667 14.8794 0.895833 14.8546 0.5375 14.6229C0.179167 14.3911 0 14.0601 0 13.6298V2.13509C0 1.88682 0.0583333 1.65924 0.175 1.45235C0.291667 1.24547 0.466667 1.08409 0.7 0.968236C1.4 0.637215 2.12917 0.393088 2.8875 0.235853C3.64583 0.0786177 4.41667 0 5.2 0C6.25 0 7.27083 0.140684 8.2625 0.422052C9.25417 0.70342 10.1833 1.13375 11.05 1.71303C11.9 1.13375 12.8125 0.70342 13.7875 0.422052C14.7625 0.140684 15.7667 0 16.8 0C17.5833 0 18.35 0.0786177 19.1 0.235853C19.85 0.393088 20.575 0.637215 21.275 0.968236C21.5083 1.08409 21.6875 1.24547 21.8125 1.45235C21.9375 1.65924 22 1.88682 22 2.13509V13.6298C22 14.0932 21.8125 14.4449 21.4375 14.6849C21.0625 14.9249 20.6917 14.929 20.325 14.6973C19.7583 14.4656 19.1833 14.2794 18.6 14.1387C18.0167 13.998 17.4167 13.9277 16.8 13.9277C15.9 13.9277 15.0167 14.0601 14.15 14.3249C13.2833 14.5897 12.4667 14.9621 11.7 15.4421C11.6167 15.5083 11.5208 15.5538 11.4125 15.5787C11.3042 15.6035 11.1833 15.6159 11.05 15.6159Z"
    fill="#F28EAA" />
</svg>
  